<svg width="28" height="28" viewBox="0 0 28 28" fill="none" xmlns="http://www.w3.org/2000/svg">
<path d="M7 8.40031V19.4663C7 21.0542 7 21.848 7.23814 22.3339C7.67952 23.2344 8.64684 23.752 9.64095 23.6197C10.1773 23.5483 10.8379 23.1079 12.1591 22.2271L12.1623 22.225C12.686 21.8759 12.9478 21.7013 13.2218 21.6045C13.7249 21.4267 14.2739 21.4267 14.777 21.6045C15.0515 21.7015 15.3144 21.8768 15.8402 22.2273C17.1614 23.1081 17.8228 23.5482 18.3591 23.6195C19.3532 23.7518 20.3205 23.2344 20.7619 22.3339C21 21.8481 21 21.054 21 19.4663V8.39648C21 7.09224 21 6.43915 20.7459 5.94051C20.5222 5.50147 20.1643 5.14477 19.7253 4.92107C19.2262 4.66675 18.5737 4.66675 17.2669 4.66675H10.7336C9.42677 4.66675 8.77289 4.66675 8.27376 4.92107C7.83472 5.14477 7.47802 5.50147 7.25432 5.94051C7 6.43964 7 7.09352 7 8.40031Z" stroke="#0F0F0F" stroke-width="2" stroke-linecap="round" stroke-linejoin="round"/>
</svg>
