<svg width="3246" height="1619" viewBox="0 0 3246 1619" fill="none" xmlns="http://www.w3.org/2000/svg">
<path d="M3241.64 1615.87C2841.01 1496.69 2428.6 1417.89 2011.4 1388C1882.23 1378.75 1752.8 1374.26 1623.32 1374.1C1623.32 997.661 1623.32 621.224 1623.32 244.772C1752.8 244.615 1882.25 240.129 2011.4 230.877C2428.6 200.986 2841.01 122.187 3241.64 3.00043C3039.61 172.204 2840.5 383.078 2776.61 646.301C2727.25 849.694 2778.56 1054.03 2888.1 1229.11C2981.25 1377.97 3107.53 1503.56 3241.64 1615.87Z" stroke="#6A6AF7" stroke-opacity="0.2" stroke-width="2" stroke-miterlimit="10"/>
<path d="M2972.26 271.815C2530.26 376.88 2077.82 432.421 1623.32 433.001" stroke="#6A6AF7" stroke-opacity="0.2" stroke-width="2" stroke-miterlimit="10"/>
<path d="M2810.65 540.623C2417.1 593.729 2020.47 620.889 1623.32 621.21" stroke="#6A6AF7" stroke-opacity="0.2" stroke-width="2" stroke-miterlimit="10"/>
<path d="M2756.78 809.425C2378.96 809.425 2001.15 809.425 1623.33 809.425" stroke="#6A6AF7" stroke-opacity="0.2" stroke-width="2" stroke-miterlimit="10"/>
<path d="M2810.65 1078.25C2417.1 1025.15 2020.47 997.987 1623.32 997.666" stroke="#6A6AF7" stroke-opacity="0.2" stroke-width="2" stroke-miterlimit="10"/>
<path d="M2972.26 1347.07C2530.26 1242 2077.82 1186.46 1623.32 1185.88" stroke="#6A6AF7" stroke-opacity="0.2" stroke-width="2" stroke-miterlimit="10"/>
<path d="M1893.03 1380.82C1788 1004.87 1787.99 614.026 1893.03 238.071" stroke="#6A6AF7" stroke-opacity="0.2" stroke-width="2" stroke-miterlimit="10"/>
<path d="M2162.76 1400.95C2064.19 1218.5 2001.15 1017.86 2001.15 809.423C2001.15 600.984 2064.19 400.346 2162.76 217.893" stroke="#6A6AF7" stroke-opacity="0.2" stroke-width="2" stroke-miterlimit="10"/>
<path d="M2432.49 1434.55C2293.71 1253.79 2190.07 1041.11 2190.07 809.439C2190.07 577.767 2293.71 365.103 2432.49 184.327" stroke="#6A6AF7" stroke-opacity="0.2" stroke-width="2" stroke-miterlimit="10"/>
<path d="M2702.21 1481.55C2609.08 1383.84 2524.63 1276.65 2464.6 1155.34C2390.9 1006.43 2360.38 839.946 2391.75 675.831C2431.57 467.548 2558.26 288.346 2702.21 137.324" stroke="#6A6AF7" stroke-opacity="0.2" stroke-width="2" stroke-miterlimit="10"/>
<path d="M2971.92 1541.98C2859.08 1438.87 2754.26 1324.46 2677.78 1191.5C2585.38 1030.88 2543.75 846.387 2583.89 663.595C2635.41 428.93 2798.55 235.296 2971.92 76.8615" stroke="#6A6AF7" stroke-opacity="0.2" stroke-width="2" stroke-miterlimit="10"/>
<path d="M1623.32 1374.1C1209.4 1374.64 796.589 1422.16 393.072 1513.82C262.589 1543.46 133.228 1577.73 5.001 1615.87C139.104 1503.56 265.39 1377.98 358.539 1229.11C468.078 1054.04 519.39 849.694 470.029 646.301C406.157 383.078 207.027 172.193 5.00114 3.00029C133.239 41.1505 262.589 75.4219 393.072 105.051C796.589 196.71 1209.4 244.228 1623.32 244.772C1623.32 621.213 1623.32 997.651 1623.32 1374.1Z" stroke="#6A6AF7" stroke-opacity="0.2" stroke-width="2" stroke-miterlimit="10"/>
<path d="M1623.32 433.001C1168.82 432.431 716.358 376.89 274.373 271.814" stroke="#6A6AF7" stroke-opacity="0.2" stroke-width="2" stroke-miterlimit="10"/>
<path d="M1623.32 621.21C1226.16 620.889 829.549 593.719 435.99 540.623" stroke="#6A6AF7" stroke-opacity="0.2" stroke-width="2" stroke-miterlimit="10"/>
<path d="M1623.32 809.425C1245.5 809.425 867.692 809.425 489.862 809.425" stroke="#6A6AF7" stroke-opacity="0.2" stroke-width="2" stroke-miterlimit="10"/>
<path d="M1623.32 997.643C1226.16 997.964 829.549 1025.13 435.99 1078.23" stroke="#6A6AF7" stroke-opacity="0.2" stroke-width="2" stroke-miterlimit="10"/>
<path d="M1623.32 1185.88C1168.82 1186.45 716.358 1241.99 274.373 1347.07" stroke="#6A6AF7" stroke-opacity="0.2" stroke-width="2" stroke-miterlimit="10"/>
<path d="M274.712 1541.98C387.567 1438.87 492.384 1324.46 568.869 1191.5C661.262 1030.88 702.889 846.387 662.752 663.595C611.23 428.93 448.092 235.296 274.712 76.8615" stroke="#6A6AF7" stroke-opacity="0.2" stroke-width="2" stroke-miterlimit="10"/>
<path d="M544.437 1481.55C637.575 1383.84 722.014 1276.65 782.056 1155.34C855.75 1006.43 886.275 839.946 854.9 675.831C815.079 467.548 688.394 288.346 544.437 137.324" stroke="#6A6AF7" stroke-opacity="0.2" stroke-width="2" stroke-miterlimit="10"/>
<path d="M814.155 1434.55C952.938 1253.79 1056.57 1041.11 1056.57 809.439C1056.57 577.756 952.938 365.103 814.155 184.327" stroke="#6A6AF7" stroke-opacity="0.2" stroke-width="2" stroke-miterlimit="10"/>
<path d="M1083.88 1400.95C1182.44 1218.5 1245.48 1017.86 1245.48 809.423C1245.48 600.974 1182.44 400.346 1083.88 217.893" stroke="#6A6AF7" stroke-opacity="0.2" stroke-width="2" stroke-miterlimit="10"/>
<path d="M1353.61 1380.82C1458.63 1004.86 1458.63 614.026 1353.61 238.071" stroke="#6A6AF7" stroke-opacity="0.2" stroke-width="2" stroke-miterlimit="10"/>
</svg>
