<svg width="56" height="55" viewBox="0 0 56 55" fill="none" xmlns="http://www.w3.org/2000/svg">
<rect width="56" height="55" rx="13.4634" fill="#0F0F0F"/>
<path d="M18.536 28.498V37H15.598V17.656H18.536V25.404H20.538V17.656H23.476V37H20.538V28.498H18.536ZM28.1985 17.474H28.7445C29.9405 17.474 30.7985 17.7427 31.3185 18.28C31.8385 18.8173 32.0985 19.6667 32.0985 20.828V24H29.2645V21.218C29.2645 20.4553 28.9871 20.074 28.4325 20.074C28.1031 20.074 27.8778 20.178 27.7565 20.386C27.6351 20.594 27.5745 20.9407 27.5745 21.426V21.79C27.5745 22.3447 27.6525 22.8213 27.8085 23.22C27.9645 23.6187 28.2851 24.13 28.7705 24.754L30.6425 27.172C31.3185 28.056 31.7778 28.8273 32.0205 29.486C32.2631 30.1273 32.3845 30.9853 32.3845 32.06V32.684C32.3845 35.7 31.1191 37.208 28.5885 37.208H28.0165C25.6245 37.208 24.4285 35.986 24.4285 33.542V29.668H27.3405V33.048C27.3405 33.9493 27.6611 34.4 28.3025 34.4C28.6491 34.4 28.8918 34.2787 29.0305 34.036C29.1865 33.776 29.2645 33.3427 29.2645 32.736V32.294C29.2645 31.5833 29.1951 31.0373 29.0565 30.656C28.9178 30.2747 28.5885 29.7373 28.0685 29.044L26.1965 26.652C25.5898 25.8547 25.1651 25.1093 24.9225 24.416C24.6971 23.7053 24.5845 22.856 24.5845 21.868V21.244C24.5845 18.7307 25.7891 17.474 28.1985 17.474ZM33.3207 17.656H40.0027V20.464H36.2587V25.534H39.1967V28.472H36.2587V34.062H40.1587V37H33.3207V17.656Z" fill="#F4F4F4"/>
</svg>
