<svg width="100" height="29" viewBox="0 0 100 29" fill="none" xmlns="http://www.w3.org/2000/svg">
<path d="M0.0107846 0.924316C1.58379 1.16673 3.15142 1.393 4.72443 1.60848C6.52309 1.77409 8.20917 2.55626 9.49725 3.82254C10.0488 4.39379 10.4816 5.06892 10.7701 5.80874C11.0586 6.54855 11.1973 7.3383 11.1781 8.13215C11.2172 8.87604 11.0927 9.61944 10.8135 10.31C10.5343 11.0006 10.1071 11.6217 9.56196 12.1293C8.48456 13.1044 6.86845 13.6108 4.71364 13.5892V14.1279C6.93848 14.1279 8.62456 14.7097 9.76661 15.7925C10.3483 16.3581 10.8025 17.0414 11.0989 17.7967C11.3952 18.552 11.527 19.3619 11.4852 20.1721C11.5386 21.9419 10.9054 23.6638 9.71821 24.9773C8.39279 26.3551 6.61697 27.2114 4.71364 27.3908C3.14063 27.6062 1.57301 27.8325 0 28.0695L0.0107846 0.924316ZM4.8591 11.192C5.09089 11.2073 5.32231 11.158 5.52775 11.0496C5.73318 10.9412 5.90452 10.7779 6.02265 10.5778C6.3408 9.94475 6.48225 9.23755 6.43207 8.53079C6.47637 7.8088 6.33544 7.08745 6.02265 6.43523C5.90671 6.22221 5.73977 6.04133 5.53669 5.90876C5.3336 5.77619 5.10077 5.6961 4.8591 5.67567H4.69747V11.2028L4.8591 11.192ZM4.8591 23.3289C5.15013 23.2995 5.4292 23.1979 5.67097 23.0333C5.91274 22.8686 6.1096 22.6462 6.2436 22.3862C6.63198 21.5574 6.80429 20.6437 6.74456 19.7304C6.80763 18.881 6.63426 18.0308 6.2436 17.2739C6.10189 17.0358 5.89828 16.8404 5.65453 16.7086C5.41079 16.5768 5.13597 16.5134 4.8591 16.5251H4.69747V23.3397L4.8591 23.3289Z" fill="#0F0F0F"/>
<path d="M18.753 26.2538C17.6358 26.3929 16.5085 26.0893 15.6123 25.408C14.6965 24.7131 13.9638 23.4741 13.4197 21.6748C12.806 19.3343 12.5303 16.9179 12.6009 14.4993C12.5306 12.0824 12.8063 9.66795 13.4197 7.32917C13.9584 5.52991 14.6965 4.29086 15.6123 3.59594C16.5093 2.91584 17.6353 2.6107 18.753 2.74481C19.7261 2.84343 20.651 3.21714 21.4195 3.82221C22.2659 4.4909 22.9385 5.35388 23.3803 6.33794C23.8972 7.49241 24.1512 8.7473 24.1238 10.0119C24.1377 10.794 24.0305 11.5736 23.8059 12.3229L19.5394 12.2529V11.2886C19.5394 9.9688 19.5018 8.9668 19.4317 8.27726C19.4102 7.81422 19.3081 7.35847 19.13 6.9305C19.0899 6.84251 19.0285 6.76589 18.9514 6.70758C18.8743 6.64926 18.7838 6.61109 18.6882 6.59651C18.4566 6.59651 18.268 6.7312 18.1172 7.04364C17.9025 7.75341 17.7865 8.48936 17.7725 9.23077C17.6863 10.3728 17.6486 12.129 17.6486 14.4885C17.6486 16.848 17.6863 18.6096 17.7725 19.7516C17.7872 20.493 17.9031 21.2288 18.1172 21.9388C18.268 22.2512 18.4566 22.402 18.6882 22.3859C18.7838 22.3713 18.8743 22.3331 18.9514 22.2748C19.0285 22.2165 19.0899 22.1399 19.13 22.0519C19.3081 21.6239 19.4102 21.1682 19.4317 20.7051C19.5018 20.0156 19.5394 19.0136 19.5394 17.6884V16.7295L23.8059 16.6595C24.0305 17.4088 24.1377 18.1884 24.1238 18.9705C24.1512 20.2351 23.8972 21.49 23.3803 22.6445C22.9385 23.6285 22.2659 24.4915 21.4195 25.1602C20.6544 25.7737 19.7285 26.1534 18.753 26.2538Z" fill="#0F0F0F"/>
<path d="M25.7168 3.81201C29.4087 4.08136 33.1006 4.28968 36.7925 4.43692V24.5682C35.2088 24.6293 33.6267 24.7029 32.0465 24.7891V8.03545L30.4628 7.98156V24.8806C28.879 24.9722 27.3006 25.0746 25.7168 25.1931V3.81201Z" fill="#0F0F0F"/>
<path d="M38.6785 4.50684C40.2623 4.56071 41.846 4.60383 43.4298 4.63615V11.1006C44.5766 11.0785 45.7123 11.3296 46.7429 11.8332C47.6679 12.3165 48.4123 13.0855 48.8653 14.0257C49.397 15.1773 49.6517 16.4374 49.6088 17.705C49.6421 18.9337 49.3874 20.1532 48.8653 21.2659C48.3958 22.2244 47.6438 23.0159 46.7105 23.5338C45.6973 24.0781 44.5639 24.3596 43.4137 24.3526C41.83 24.385 40.2461 24.428 38.6624 24.4819L38.6785 4.50684ZM43.586 21.1258C43.7977 21.1214 44.0029 21.0517 44.1735 20.9264C44.3442 20.8011 44.472 20.6262 44.5395 20.4255C44.8081 19.5544 44.9158 18.6417 44.8574 17.732C44.9163 16.8223 44.8086 15.9095 44.5395 15.0385C44.4715 14.839 44.3433 14.6655 44.1725 14.542C44.0017 14.4185 43.7968 14.351 43.586 14.3489H43.4298V21.115L43.586 21.1258ZM50.8747 4.70079C52.4657 4.70079 54.0513 4.68462 55.6315 4.6523V24.3526C54.0477 24.3275 52.4621 24.3113 50.8747 24.3041V4.70079Z" fill="#0F0F0F"/>
<path d="M57.5337 4.61467C59.1175 4.57696 60.7012 4.53386 62.2849 4.4746V20.8081L63.551 20.835V4.42614C65.1347 4.3615 66.7168 4.28429 68.2969 4.1945V20.9804L69.5628 21.0236V4.12447C71.1466 4.03289 72.7304 3.92514 74.3088 3.81201V25.1931C68.7243 24.7837 63.1326 24.5161 57.5337 24.3904V4.61467Z" fill="#0F0F0F"/>
<path d="M76.2053 3.66649C77.7891 3.54079 79.3693 3.40611 80.9459 3.26246V12.4204H82.2065V3.1655C83.7849 3.01466 85.3632 2.84768 86.9416 2.67529C86.4137 6.00447 85.8876 9.28875 85.3633 12.5281C86.1031 17.0748 86.8394 21.7166 87.572 26.4536C85.8912 26.2651 84.205 26.0873 82.5243 25.9149C82.2082 22.7366 81.8922 19.5851 81.5762 16.4607H80.9459V25.7748C79.3693 25.6276 77.7891 25.4929 76.2053 25.3708V3.66649Z" fill="#0F0F0F"/>
<path d="M90.0933 2.27683C92.5605 1.98234 95.0242 1.65552 97.4842 1.29639C98.3246 9.98027 99.1632 18.9065 99.9999 28.0752C98.3838 27.8328 96.7677 27.5958 95.1516 27.3749C95.0762 25.9384 95.0026 24.5216 94.9308 23.1246L92.6952 22.9253C92.6234 24.2936 92.5497 25.6583 92.4743 27.0194C90.8582 26.8093 89.2422 26.6154 87.5938 26.4268C88.4198 18.5725 89.2529 10.5226 90.0933 2.27683ZM94.753 18.3463C94.5088 14.4928 94.2664 10.6662 94.0258 6.86655L93.5571 6.90426C93.3165 10.7255 93.0741 14.5143 92.8299 18.2709L94.753 18.3463Z" fill="#0F0F0F"/>
</svg>
