<svg width="25" height="25" viewBox="0 0 25 25" fill="none" xmlns="http://www.w3.org/2000/svg">
<path d="M15.5 17.5V18.5C15.5 20.1569 14.1569 21.5 12.5 21.5C10.8431 21.5 9.5 20.1569 9.5 18.5V17.5M15.5 17.5H9.5M15.5 17.5H19.0905C19.473 17.5 19.6652 17.5 19.8201 17.4478C20.116 17.348 20.3475 17.1156 20.4473 16.8198C20.4997 16.6643 20.4997 16.4715 20.4997 16.0859C20.4997 15.9172 20.4995 15.8329 20.4863 15.7524C20.4614 15.6004 20.4024 15.4563 20.3126 15.3312C20.2651 15.2651 20.2048 15.2048 20.0858 15.0858L19.6963 14.6963C19.5706 14.5706 19.5 14.4001 19.5 14.2224V10.5C19.5 6.634 16.366 3.49999 12.5 3.5C8.63401 3.50001 5.5 6.63401 5.5 10.5V14.2224C5.5 14.4002 5.42924 14.5706 5.30357 14.6963L4.91406 15.0858C4.79476 15.2051 4.73504 15.265 4.6875 15.3312C4.59766 15.4564 4.53815 15.6004 4.5132 15.7524C4.5 15.8329 4.5 15.9172 4.5 16.086C4.5 16.4715 4.5 16.6642 4.55245 16.8197C4.65225 17.1156 4.8848 17.348 5.18066 17.4478C5.33556 17.5 5.52701 17.5 5.90956 17.5H9.5" stroke="#0F0F0F" stroke-width="1.8" stroke-linecap="round" stroke-linejoin="round"/>
</svg>
