<svg width="56" height="55" viewBox="0 0 56 55" fill="none" xmlns="http://www.w3.org/2000/svg">
<rect width="56" height="55" rx="13.4634" fill="#0F0F0F"/>
<path d="M40.4868 19.1202C40.2391 21.606 38.2349 34.2213 37.8072 35.4872C37.4422 36.5687 37.0559 37.5 36.3228 37.5C35.5898 37.5 34.7889 37.2533 33.9992 36.7091C33.2095 36.1649 27.9666 32.7732 27.2376 32.3304C26.5995 31.9423 25.9241 30.9729 26.8756 30.0377C27.6592 29.2673 33.6028 23.7037 34.1104 23.2141C34.618 22.7236 34.1226 22.0965 33.5017 22.5861C32.8798 23.0756 24.2213 28.6636 23.471 29.1132C22.7632 29.5374 21.5002 29.7939 20.391 29.4984C19.2393 29.1922 17.2887 28.6217 16.5142 28.3554C15.77 28.099 15.5 27.8522 15.5 27.4134C15.5 26.7893 16.4121 26.3582 17.3767 25.9632C18.3939 25.5459 36.0003 18.3361 37.3775 17.8573C38.3816 17.5082 39.2471 17.3726 39.8316 17.6437C40.3149 17.867 40.5616 18.3673 40.4868 19.1202Z" fill="#F4F4F4"/>
</svg>
